<svg width="25" height="22" viewBox="0 0 25 22" fill="none" xmlns="http://www.w3.org/2000/svg">
<path d="M12.3096 6.96512L15.8883 10.6125L15.9053 10.4214C15.9053 8.50511 14.3773 6.94775 12.497 6.94775L12.3096 6.96512Z" fill="black"/>
<path d="M12.497 4.63154C15.6327 4.63154 18.1776 7.22524 18.1776 10.421C18.1776 11.1679 18.0299 11.88 17.7743 12.5342L21.0974 15.921C22.8129 14.4621 24.1648 12.5747 24.9999 10.421C23.0288 5.33789 18.1833 1.73682 12.4971 1.73682C10.9065 1.73682 9.38417 2.02627 7.96973 2.54733L10.4237 5.04257C11.0655 4.78785 11.7642 4.63154 12.497 4.63154Z" fill="black"/>
<path d="M1.13609 1.47632L3.7264 4.11632L4.24334 4.64318C2.36877 6.13687 0.88616 8.12267 0 10.4211C1.96548 15.5042 6.81662 19.1053 12.4971 19.1053C14.2581 19.1053 15.9395 18.7579 17.479 18.1268L17.9618 18.619L21.2736 22L22.7221 20.5295L2.58462 0L1.13609 1.47632ZM7.41877 7.87371L9.17405 9.66266C9.12292 9.91162 9.08884 10.1605 9.08884 10.4211C9.08884 12.3374 10.6169 13.8947 12.4971 13.8947C12.7528 13.8947 12.9971 13.86 13.2356 13.8079L14.9909 15.5969C14.2354 15.979 13.3947 16.2106 12.4971 16.2106C9.3615 16.2106 6.81662 13.6169 6.81662 10.4211C6.81662 9.50634 7.04386 8.64948 7.41877 7.87371Z" fill="black"/>
</svg>
