<svg width="103" height="26" viewBox="0 0 103 26" fill="none" xmlns="http://www.w3.org/2000/svg">
<path d="M21.5557 15.0508L24.7373 16.8262C24.0225 19.5449 22.5752 21.6543 20.3955 23.1543C18.2275 24.6426 15.7314 25.3867 12.9072 25.3867C9.2041 25.3867 6.2334 24.1855 3.99512 21.7832C1.75684 19.3809 0.637695 16.4102 0.637695 12.8711C0.637695 8.99219 1.7627 5.9043 4.0127 3.60742C6.2627 1.31055 9.19824 0.162109 12.8193 0.162109C16.0186 0.162109 18.708 1.03516 20.8877 2.78125V0.548828H24.0518V8.40625H20.8877C20.1846 6.8125 19.1006 5.58203 17.6357 4.71484C16.1709 3.83594 14.6299 3.39648 13.0127 3.39648C10.5752 3.39648 8.57129 4.27539 7.00098 6.0332C5.44238 7.79102 4.66309 10.0117 4.66309 12.6953C4.66309 15.4492 5.50098 17.6992 7.17676 19.4453C8.85254 21.1914 10.8389 22.0645 13.1357 22.0645C15.0225 22.0645 16.7393 21.4609 18.2861 20.2539C19.833 19.0352 20.9229 17.3008 21.5557 15.0508ZM25.7329 12.6602C25.7329 9.10938 26.8931 6.13867 29.2134 3.74805C31.5337 1.35742 34.5571 0.162109 38.2837 0.162109C42.0454 0.162109 45.1099 1.35742 47.4771 3.74805C49.8443 6.13867 51.0279 9.13281 51.0279 12.7305C51.0279 16.3984 49.8208 19.4277 47.4068 21.8184C45.0044 24.1973 41.9458 25.3867 38.231 25.3867C35.8638 25.3867 33.6841 24.8242 31.6919 23.6992C29.7114 22.5625 28.2232 20.9863 27.2271 18.9707C26.231 16.9434 25.7329 14.8398 25.7329 12.6602ZM29.7583 12.6777C29.7583 15.3613 30.5435 17.6113 32.1138 19.4277C33.6841 21.2441 35.7466 22.1523 38.3013 22.1523C40.8325 22.1523 42.9126 21.2266 44.5415 19.375C46.1704 17.5117 46.9849 15.291 46.9849 12.7129C46.9849 10.1113 46.1529 7.91406 44.4888 6.12109C42.8364 4.31641 40.7564 3.41406 38.2486 3.41406C35.7525 3.41406 33.7134 4.29883 32.1314 6.06836C30.5493 7.83789 29.7583 10.041 29.7583 12.6777ZM72.7305 15.0508L75.9121 16.8262C75.1973 19.5449 73.75 21.6543 71.5704 23.1543C69.4024 24.6426 66.9063 25.3867 64.0821 25.3867C60.3789 25.3867 57.4082 24.1855 55.17 21.7832C52.9317 19.3809 51.8125 16.4102 51.8125 12.8711C51.8125 8.99219 52.9375 5.9043 55.1875 3.60742C57.4375 1.31055 60.3731 0.162109 63.9942 0.162109C67.1934 0.162109 69.8829 1.03516 72.0625 2.78125V0.548828H75.2266V8.40625H72.0625C71.3594 6.8125 70.2754 5.58203 68.8106 4.71484C67.3457 3.83594 65.8047 3.39648 64.1875 3.39648C61.75 3.39648 59.7461 4.27539 58.1758 6.0332C56.6172 7.79102 55.8379 10.0117 55.8379 12.6953C55.8379 15.4492 56.6758 17.6992 58.3516 19.4453C60.0274 21.1914 62.0137 22.0645 64.3106 22.0645C66.1973 22.0645 67.9141 21.4609 69.461 20.2539C71.0079 19.0352 72.0977 17.3008 72.7305 15.0508ZM76.9078 12.6602C76.9078 9.10938 78.0679 6.13867 80.3882 3.74805C82.7086 1.35742 85.732 0.162109 89.4586 0.162109C93.2203 0.162109 96.2847 1.35742 98.6519 3.74805C101.019 6.13867 102.203 9.13281 102.203 12.7305C102.203 16.3984 100.996 19.4277 98.5816 21.8184C96.1793 24.1973 93.1207 25.3867 89.4058 25.3867C87.0386 25.3867 84.8589 24.8242 82.8668 23.6992C80.8863 22.5625 79.398 20.9863 78.4019 18.9707C77.4058 16.9434 76.9078 14.8398 76.9078 12.6602ZM80.9332 12.6777C80.9332 15.3613 81.7183 17.6113 83.2886 19.4277C84.8589 21.2441 86.9214 22.1523 89.4761 22.1523C92.0074 22.1523 94.0875 21.2266 95.7164 19.375C97.3453 17.5117 98.1597 15.291 98.1597 12.7129C98.1597 10.1113 97.3277 7.91406 95.6636 6.12109C94.0113 4.31641 91.9312 3.41406 89.4234 3.41406C86.9273 3.41406 84.8882 4.29883 83.3062 6.06836C81.7242 7.83789 80.9332 10.041 80.9332 12.6777Z" fill="black"/>
</svg>
