<svg width="25" height="18" viewBox="0 0 25 18" fill="none" xmlns="http://www.w3.org/2000/svg">
<path d="M12.4999 11.5716C13.1947 11.5716 13.8612 11.3006 14.3525 10.8184C14.8438 10.3362 15.1199 9.68212 15.1199 9.00014C15.1199 8.31815 14.8438 7.6641 14.3525 7.18187C13.8612 6.69963 13.1947 6.42871 12.4999 6.42871C11.805 6.42871 11.1386 6.69963 10.6473 7.18187C10.1559 7.6641 9.87988 8.31815 9.87988 9.00014C9.87988 9.68212 10.1559 10.3362 10.6473 10.8184C11.1386 11.3006 11.805 11.5716 12.4999 11.5716Z" fill="black"/>
<path fill-rule="evenodd" clip-rule="evenodd" d="M0 9C1.66894 3.78386 6.63383 0 12.5 0C18.3662 0 23.3311 3.78386 25 9C23.3311 14.2161 18.3662 18 12.5 18C6.63383 18 1.66894 14.2161 0 9ZM17.74 9C17.74 10.364 17.1879 11.6721 16.2052 12.6365C15.2225 13.601 13.8897 14.1429 12.5 14.1429C11.1103 14.1429 9.77746 13.601 8.79477 12.6365C7.81208 11.6721 7.26001 10.364 7.26001 9C7.26001 7.63603 7.81208 6.32792 8.79477 5.36345C9.77746 4.39898 11.1103 3.85714 12.5 3.85714C13.8897 3.85714 15.2225 4.39898 16.2052 5.36345C17.1879 6.32792 17.74 7.63603 17.74 9Z" fill="black"/>
</svg>
