<svg width="220" height="220" viewBox="0 0 220 220" fill="none" xmlns="http://www.w3.org/2000/svg">
<g clip-path="url(#clip0_277_174)">
<rect width="220" height="220" rx="100" fill="white"/>
<path d="M154 88.001C154 99.6705 149.364 110.862 141.113 119.114C132.861 127.365 121.67 132.001 110 132.001C98.3305 132.001 87.1389 127.365 78.8873 119.114C70.6357 110.862 66 99.6705 66 88.001C66 76.3314 70.6357 65.1399 78.8873 56.8883C87.1389 48.6367 98.3305 44.001 110 44.001C121.67 44.001 132.861 48.6367 141.113 56.8883C149.364 65.1399 154 76.3314 154 88.001Z" fill="#B8B8B8"/>
<path fill-rule="evenodd" clip-rule="evenodd" d="M105.512 219.912C46.8435 217.558 0 169.246 0 110C0 49.247 49.247 0 110 0C170.753 0 220 49.247 220 110C220 170.753 170.753 220 110 220H108.493C107.496 220 106.502 219.971 105.512 219.912ZM34.3782 173.892C35.5351 175.26 38.391 173.826 38.5939 172.047V172.047C38.8773 169.562 39.7166 167.173 41.0497 165.056C42.3827 162.94 44.1752 161.152 46.2942 159.823C48.4131 158.495 50.804 157.661 53.2895 157.383C96.1675 152.636 124.096 153.065 166.765 157.481C169.254 157.741 171.651 158.564 173.773 159.89C175.896 161.215 177.688 163.008 179.013 165.13C180.338 167.253 181.161 169.65 181.419 172.139V172.139C181.6 173.877 184.422 175.315 185.553 173.983C200.666 156.18 209.031 133.514 209 110C209 55.3245 164.675 11 110 11C55.3245 11 11 55.3245 11 110C11 134.351 19.7932 156.651 34.3782 173.892Z" fill="#B8B8B8"/>
</g>
<defs>
<clipPath id="clip0_277_174">
<rect width="220" height="220" rx="100" fill="white"/>
</clipPath>
</defs>
</svg>
