<svg width="220" height="220" viewBox="0 0 220 220" fill="none" xmlns="http://www.w3.org/2000/svg">
<g clip-path="url(#clip0_412_197)">
<path d="M46.1314 195.13C34.9424 156.733 34.9424 78.014 34.9424 78.014L179.317 77.4468C179.317 77.4468 179.317 148.758 170.93 194.648L46.1314 195.13Z" fill="#6D4C41"/>
<path d="M32.2437 202.967V219.966H182.016V202.967C182.016 176.894 145.251 163.659 107.697 163.711C70.3655 163.762 32.2437 175.364 32.2437 202.967Z" fill="#424242"/>
<path d="M107.13 147.142C146.998 147.142 179.317 116.746 179.317 79.2515C179.317 41.7565 146.998 11.3608 107.13 11.3608C67.2618 11.3608 34.9424 41.7565 34.9424 79.2515C34.9424 116.746 67.2618 147.142 107.13 147.142Z" fill="#6D4C41"/>
<path d="M107.13 155.117H91.5234V171.6C91.5234 179.059 97.8828 185.109 105.72 185.109H108.556C116.394 185.109 122.753 179.059 122.753 171.6V155.117H107.13Z" fill="#E49500"/>
<path d="M107.13 23.3235C65.278 23.3235 54.3296 55.7563 54.3296 101.338C54.3296 146.902 86.7968 160.806 107.13 160.806C127.462 160.806 159.93 146.902 159.93 101.338C159.93 55.7735 148.964 23.3235 107.13 23.3235Z" fill="#FBC11B"/>
<path d="M123.166 134.252H91.4375C89.6156 134.252 88.8422 135.472 90.0453 137.311C91.7297 139.872 97.9687 144.805 107.302 144.805C116.634 144.805 122.873 139.872 124.558 137.311C125.761 135.472 124.988 134.252 123.166 134.252ZM89.2547 104.38C89.2547 109.261 85.9891 113.231 81.9328 113.231C77.8937 113.231 74.5938 109.278 74.5938 104.38C74.5938 99.4813 77.8766 95.5281 81.9328 95.5281C85.9891 95.5109 89.2547 99.4813 89.2547 104.38ZM125.348 104.38C125.348 109.261 128.614 113.231 132.687 113.231C136.727 113.231 140.009 109.278 140.009 104.38C140.009 99.4813 136.727 95.5281 132.687 95.5281C128.614 95.5109 125.348 99.4813 125.348 104.38Z" fill="#444444"/>
<path d="M114.881 120.777C112.183 121.533 109.381 121.911 107.216 121.911C105.05 121.911 102.248 121.533 99.5499 120.777C98.3984 120.45 97.9343 121.55 98.364 122.272C99.2234 123.784 102.661 126.809 107.216 126.809C111.77 126.809 115.208 123.767 116.067 122.272C116.48 121.533 116.033 120.45 114.881 120.777Z" fill="#E49500"/>
<path d="M122.495 59.1765C116.944 64.5218 89.3406 89.3921 51.3047 95.8718V44.8765C51.3047 44.8765 67.7188 12.3062 107.113 12.3062C146.506 12.3062 162.938 45.7015 162.938 45.7015V95.8718C162.938 95.8718 137.122 85.9718 124.163 59.4858C124.091 59.3366 123.986 59.2064 123.855 59.1057C123.723 59.0051 123.57 58.9369 123.408 58.9067C123.245 58.8766 123.078 58.8853 122.919 58.9322C122.761 58.979 122.615 59.0628 122.495 59.1765Z" fill="#6D4C41"/>
<path d="M107.181 0L21.4844 15.8469L107.405 0.034375L107.181 0Z" fill="#262626"/>
<path d="M107.663 0.0171875L107.611 0L107.405 0.034375L107.663 0.0859375V0.0171875Z" fill="#424143"/>
<path d="M108.144 0L193.858 15.8469L107.938 0.034375L108.144 0Z" fill="#262626"/>
<path d="M193.892 20.2125L193.858 15.8469L107.731 28.325H107.628L21.4846 15.8469L21.4502 20.2125L55.9455 26.2454L52.9893 34.5985C59.3143 37.3829 82.2252 46.6297 107.663 47.3C133.1 46.6125 155.203 37.3829 161.528 34.5985L158.572 26.2454L193.892 20.2125Z" fill="#262626"/>
<path d="M107.663 0.0171875L107.731 0L107.938 0.034375L107.663 0.0859375V0.0171875Z" fill="#424143"/>
<path d="M107.937 0.0344238L107.662 0.0859863L107.405 0.0344238L21.4844 15.8469L107.611 28.325L107.662 28.3079L107.731 28.325L193.858 15.8469L107.937 0.0344238Z" fill="#424143"/>
<path d="M195.422 78.8906C193.686 78.8906 192.294 80.3 192.294 82.0187V95.4766C192.294 96.3062 192.623 97.1018 193.21 97.6885C193.797 98.2751 194.592 98.6047 195.422 98.6047C196.252 98.6047 197.047 98.2751 197.634 97.6885C198.221 97.1018 198.55 96.3062 198.55 95.4766V82.0187C198.55 80.3 197.158 78.8906 195.422 78.8906ZM189.166 78.8906C187.43 78.8906 186.038 80.3 186.038 82.0187V95.4766C186.038 96.3062 186.367 97.1018 186.954 97.6885C187.54 98.2751 188.336 98.6047 189.166 98.6047C189.995 98.6047 190.791 98.2751 191.378 97.6885C191.964 97.1018 192.294 96.3062 192.294 95.4766V82.0187C192.294 80.3 190.902 78.8906 189.166 78.8906Z" fill="#FBC11B"/>
<path d="M191.159 78.8906C189.423 78.8906 188.031 80.3 188.031 82.0187V95.4766C188.031 96.3062 188.361 97.1018 188.947 97.6885C189.534 98.2751 190.33 98.6047 191.159 98.6047C191.989 98.6047 192.785 98.2751 193.371 97.6885C193.958 97.1018 194.287 96.3062 194.287 95.4766V82.0187C194.287 80.3 192.895 78.8906 191.159 78.8906Z" fill="#E49500"/>
<path d="M193.549 78.8906C191.813 78.8906 190.42 80.3 190.42 82.0187V95.4766C190.42 97.2125 191.83 98.6047 193.549 98.6047C195.267 98.6047 196.677 97.1953 196.677 95.4766V82.0187C196.677 80.3 195.284 78.8906 193.549 78.8906Z" fill="#E49500"/>
<path d="M192.294 78.8906C190.558 78.8906 189.166 80.3 189.166 82.0187V98.3813C189.166 99.2109 189.495 100.007 190.082 100.593C190.668 101.18 191.464 101.509 192.294 101.509C193.123 101.509 193.919 101.18 194.506 100.593C195.092 100.007 195.422 99.2109 195.422 98.3813V82.0187C195.422 80.3 194.03 78.8906 192.294 78.8906Z" fill="#FBC11B"/>
<path d="M192.294 81.5375C194.249 81.5375 195.834 79.9524 195.834 77.9969C195.834 76.0415 194.249 74.4563 192.294 74.4563C190.338 74.4563 188.753 76.0415 188.753 77.9969C188.753 79.9524 190.338 81.5375 192.294 81.5375Z" fill="#E49500"/>
<path d="M192.294 80.6267C194.249 80.6267 195.834 79.0415 195.834 77.086C195.834 75.1306 194.249 73.5454 192.294 73.5454C190.338 73.5454 188.753 75.1306 188.753 77.086C188.753 79.0415 190.338 80.6267 192.294 80.6267Z" fill="#FBC11B"/>
<path d="M190.747 16.2422V76.3125H190.781C190.85 77.1031 191.503 77.7391 192.311 77.7391C193.119 77.7391 193.772 77.1203 193.841 76.3125H193.875V16.2422H190.747Z" fill="#262626"/>
<path d="M124.042 220H90.2173V164.484L107.13 185.109L124.042 164.484V220Z" fill="#424242"/>
</g>
<defs>
<clipPath id="clip0_412_197">
<rect width="220" height="220" fill="white"/>
</clipPath>
</defs>
</svg>
