<svg width="220" height="220" viewBox="0 0 220 220" fill="none" xmlns="http://www.w3.org/2000/svg">
<g clip-path="url(#clip0_412_220)">
<path d="M183.333 158.889C183.333 165.372 180.758 171.589 176.174 176.174C171.589 180.758 165.372 183.333 158.889 183.333H24.4444C17.9614 183.333 11.7438 180.758 7.15961 176.174C2.57539 171.589 0 165.372 0 158.889V24.4444C0 17.9614 2.57539 11.7438 7.15961 7.15961C11.7438 2.57539 17.9614 0 24.4444 0L158.889 0C165.372 0 171.589 2.57539 176.174 7.15961C180.758 11.7438 183.333 17.9614 183.333 24.4444V158.889Z" fill="#D99E82"/>
<path d="M171.111 158.889C171.111 162.13 169.823 165.239 167.531 167.531C165.239 169.823 162.13 171.111 158.889 171.111H24.4444C21.2029 171.111 18.0941 169.823 15.802 167.531C13.5099 165.239 12.2222 162.13 12.2222 158.889V24.4444C12.2222 21.2029 13.5099 18.0941 15.802 15.802C18.0941 13.5099 21.2029 12.2222 24.4444 12.2222H158.889C162.13 12.2222 165.239 13.5099 167.531 15.802C169.823 18.0941 171.111 21.2029 171.111 24.4444V158.889Z" fill="#5C913B"/>
<path d="M45.9252 54.3767C45.4363 54.9634 44.8007 55.8434 44.8007 56.87C44.8007 59.1189 46.463 60.0967 48.6141 60.0967H64.9307C66.7885 60.0967 68.4507 59.1189 68.4507 56.87C68.4507 54.6211 66.7946 53.6434 64.6374 53.6434H55.6968C59.8463 48.4184 67.4241 41.6778 67.4241 34.8823C67.4241 28.6795 62.5841 24.7195 56.5769 24.7195C50.5696 24.7195 45.0941 29.6511 45.0941 35.8111C45.0941 37.7117 46.3163 39.3739 48.663 39.3739C53.3563 39.3739 50.6674 31.46 56.2835 31.46C58.288 31.46 59.8035 33.22 59.8035 35.2245C59.8035 36.9845 58.9724 38.5 58.0924 39.7711C54.3768 45.1428 49.983 49.5428 45.9252 54.3767ZM37.938 87.5784H30.8552V80.4895C30.8552 78.7295 29.7307 77.5623 27.9218 77.5623C26.1191 77.5623 24.9946 78.7356 24.9946 80.4895V87.5784H17.9118C16.103 87.5784 14.9785 88.7517 14.9785 90.5056C14.9785 92.2656 16.103 93.4389 17.9118 93.4389H24.9946V100.522C24.9946 102.282 26.1191 103.449 27.9218 103.449C29.7307 103.449 30.8552 102.282 30.8552 100.522V93.4389H37.938C39.7469 93.4389 40.8713 92.2656 40.8713 90.5056C40.8713 88.7517 39.7469 87.5784 37.938 87.5784ZM64.6374 96.4211H55.6907C59.8463 91.1961 67.418 84.4556 67.418 77.66C67.418 71.4573 62.578 67.4973 56.5707 67.4973C50.5635 67.4973 45.088 72.435 45.088 78.5889C45.088 80.4895 46.3102 82.1517 48.6507 82.1517C53.3441 82.1517 50.6552 74.2378 56.2774 74.2378C58.2818 74.2378 59.7974 75.9978 59.7974 78.0023C59.7974 79.7623 58.9663 81.2778 58.0863 82.5489C54.3707 87.9206 49.9768 92.3206 45.9191 97.1606C45.4302 97.7473 44.7946 98.6273 44.7946 99.6539C44.7946 101.903 46.4569 102.881 48.608 102.881H64.9246C66.7824 102.881 68.4446 101.903 68.4446 99.6539C68.4446 97.3989 66.7885 96.4211 64.6374 96.4211ZM69.7707 115.928H18.8407C18.0304 115.928 17.2532 115.606 16.6801 115.033C16.1071 114.46 15.7852 113.683 15.7852 112.872C15.7852 112.062 16.1071 111.285 16.6801 110.712C17.2532 110.139 18.0304 109.817 18.8407 109.817H69.7646C70.575 109.816 71.3525 110.137 71.9261 110.709C72.4997 111.282 72.8224 112.059 72.8232 112.869C72.824 113.68 72.5029 114.457 71.9304 115.031C71.358 115.604 70.5811 115.927 69.7707 115.928Z" fill="white"/>
<path d="M220 220V207.778C220 198.053 216.137 188.727 209.26 181.85C202.384 174.974 193.058 171.111 183.333 171.111H85.5553C75.8307 171.111 66.5044 174.974 59.6281 181.85C52.7518 188.727 48.8887 198.053 48.8887 207.778V220H220Z" fill="#CCD6DD"/>
<path d="M134.89 188.253C134.89 188.253 155.039 193.698 162.665 196.24C163.643 196.564 156.854 183.358 156.854 183.358H111.308C111.308 183.358 107.158 192.781 104.763 196.784C116.74 192.97 134.084 187.709 134.084 187.709" fill="#99AAB5"/>
<path d="M107.8 171.728C112.53 175.163 115.17 181.775 121.855 183.407C123.848 187.697 126.414 193.398 128.712 198.538C130.881 203.396 137.793 203.323 139.865 198.416C142.034 193.282 144.479 187.617 146.428 183.407C153.181 180.681 156.273 175.224 161.089 171.728V148.439H107.8V171.728Z" fill="#FFDC5D"/>
<path d="M107.751 158.724C115.182 167.12 124.398 169.394 134.42 169.394C144.436 169.394 153.646 167.114 161.083 158.724V137.39H107.745L107.751 158.724Z" fill="#F9CA55"/>
<path d="M156.154 20.4167C144.39 16.6094 116.707 17.6483 109.783 26.6439C91.7918 26.9922 70.684 43.2539 67.9157 64.7039C65.1779 85.94 71.2829 95.7972 73.4524 111.766C75.9151 129.854 86.084 135.642 94.2118 138.062C105.908 153.517 118.345 152.857 139.226 152.857C180 152.857 199.421 125.577 201.138 79.2361C202.177 51.2167 185.732 29.9867 156.154 20.4167Z" fill="#FFAC33"/>
<path d="M180.565 81.1129C176.617 75.6495 171.569 71.2495 160.496 69.6973C164.652 71.5979 168.63 78.1734 169.149 81.8095C169.669 85.4456 170.188 88.3851 166.9 84.749C153.731 70.1923 139.388 75.9245 125.18 67.0329C115.255 60.824 112.23 53.949 112.23 53.949C112.23 53.949 111.02 63.1156 95.9688 72.4595C91.6054 75.1668 86.3988 81.1984 83.5143 90.1084C81.4365 96.5129 82.0843 102.221 82.0843 111.974C82.0843 140.452 105.557 164.395 134.505 164.395C163.454 164.395 186.927 140.238 186.927 111.974C186.914 94.264 185.063 87.3401 180.565 81.1129Z" fill="#FFDC5D"/>
<path d="M140.317 126.543H128.669C127.896 126.543 127.155 126.236 126.608 125.689C126.062 125.142 125.754 124.401 125.754 123.628C125.754 122.855 126.062 122.113 126.608 121.567C127.155 121.02 127.896 120.713 128.669 120.713H140.317C141.09 120.713 141.832 121.02 142.378 121.567C142.925 122.113 143.232 122.855 143.232 123.628C143.232 124.401 142.925 125.142 142.378 125.689C141.832 126.236 141.09 126.543 140.317 126.543Z" fill="#C1694F"/>
<path d="M111.192 106.15C109.647 106.15 108.166 105.536 107.073 104.444C105.981 103.352 105.368 101.871 105.368 100.326V94.5021C105.368 92.9575 105.981 91.4762 107.073 90.384C108.166 89.2918 109.647 88.6782 111.192 88.6782C112.736 88.6782 114.217 89.2918 115.31 90.384C116.402 91.4762 117.015 92.9575 117.015 94.5021V100.326C117.016 101.091 116.866 101.849 116.574 102.556C116.281 103.263 115.852 103.905 115.311 104.446C114.771 104.987 114.128 105.416 113.421 105.708C112.714 106.001 111.957 106.151 111.192 106.15ZM157.795 106.15C156.25 106.15 154.769 105.536 153.677 104.444C152.585 103.352 151.971 101.871 151.971 100.326V94.5021C151.971 92.9575 152.585 91.4762 153.677 90.384C154.769 89.2918 156.25 88.6782 157.795 88.6782C159.339 88.6782 160.821 89.2918 161.913 90.384C163.005 91.4762 163.619 92.9575 163.619 94.5021V100.326C163.619 101.871 163.005 103.352 161.913 104.444C160.821 105.536 159.339 106.15 157.795 106.15Z" fill="#662113"/>
<path d="M135.263 150.859C118.433 150.859 113.263 146.55 112.401 145.677C112.02 145.315 111.714 144.881 111.5 144.401C111.287 143.921 111.17 143.403 111.156 142.878C111.129 141.816 111.524 140.788 112.255 140.018C112.986 139.248 113.993 138.8 115.054 138.772C116.115 138.745 117.144 139.14 117.914 139.871C118.231 140.097 122.32 142.847 135.263 142.847C148.708 142.847 152.594 139.883 152.631 139.853C153 139.487 153.439 139.198 153.921 139.004C154.404 138.81 154.92 138.715 155.44 138.723C155.96 138.732 156.473 138.844 156.949 139.054C157.424 139.264 157.853 139.566 158.21 139.944C158.951 140.72 159.357 141.756 159.341 142.828C159.325 143.9 158.888 144.923 158.125 145.677C157.257 146.55 152.093 150.859 135.263 150.859Z" fill="#C1694F"/>
<path d="M105.288 162.733C108.741 166.192 121.849 183.407 121.849 183.407C121.849 183.407 114.589 187.654 105.911 195.653C102.758 198.562 97.6615 195.989 98.0465 191.718C98.7859 183.474 99.5682 173.941 99.4215 170.121C99.3543 168.269 103.638 161.071 105.288 162.733ZM162.934 162.733C159.481 166.192 146.373 183.407 146.373 183.407C146.373 183.407 153.633 187.654 162.311 195.653C165.464 198.562 170.561 195.989 170.176 191.718C169.436 183.474 168.654 173.941 168.801 170.121C168.874 168.269 164.59 161.071 162.934 162.733Z" fill="#F5F8FA"/>
</g>
<defs>
<clipPath id="clip0_412_220">
<rect width="220" height="220" fill="white"/>
</clipPath>
</defs>
</svg>
